<?xml version="1.0" encoding="utf-8"?>
<!-- Generator: Adobe Illustrator 16.0.0, SVG Export Plug-In . SVG Version: 6.00 Build 0)  -->
<!DOCTYPE svg PUBLIC "-//W3C//DTD SVG 1.1//EN" "http://www.w3.org/Graphics/SVG/1.1/DTD/svg11.dtd">
<svg version="1.1" id="图层_1" xmlns="http://www.w3.org/2000/svg" xmlns:xlink="http://www.w3.org/1999/xlink" x="0px" y="0px"
	 width="172.684px" height="150.497px" viewBox="0 0 172.684 150.497" style="enable-background:new 0 0 172.684 150.497;"
	 xml:space="preserve">
<style type="text/css">
<![CDATA[
	.st0{fill:#E27979;}
	.st1{fill:#E61F19;}
	.st2{fill:#1FB5C9;}
	.st3{fill:#FFFFFF;}
	.st4{opacity:0.5;fill:url(#SVGID_1_);}
]]>
</style>
<path class="st2" d="M50.08,148.005c-1.26,2.177-3.734,3.1-5.527,2.063l0,0c-1.793-1.039-2.223-3.645-0.963-5.822l54.697-97.223
	c1.26-2.177,3.734-3.101,5.527-2.063l0,0c1.791,1.038,2.223,3.644,0.963,5.821l-41.261,73.341L50.08,148.005z"/>
<path class="st2" d="M161.873,19.339c0,0-30.199,9.839-33.775,10.934v-5.613C128.098,11.04,117.057,0,103.438,0H24.658
	C11.039,0,0,11.04,0,24.659v63.749c0,13.619,11.039,24.66,24.658,24.66h78.779c13.619,0,24.66-11.041,24.66-24.66v-9.789
	c0.191,0.078,33.775,14.395,33.775,14.395c5.971,0,10.811-4.842,10.811-10.813V30.15C172.684,24.18,167.844,19.339,161.873,19.339z"
	/>
<linearGradient id="SVGID_1_" gradientUnits="userSpaceOnUse" x1="159.7568" y1="173.7334" x2="138.7722" y2="152.7488" gradientTransform="matrix(-0.6653 -0.7466 0.7466 -0.6653 31.7635 353.0772)">
	<stop  offset="0.2493" style="stop-color:#231815;stop-opacity:0.0427"/>
	<stop  offset="1" style="stop-color:#000000"/>
</linearGradient>
<polygon class="st4" points="43.305,144.783 58.139,118.386 65.391,120.792 50.274,147.66 "/>
<g>
	<circle class="st3" cx="63.258" cy="56.534" r="36.363"/>
	<path class="st0" d="M63.258,95.398c-21.43,0-38.863-17.435-38.863-38.864s17.434-38.863,38.863-38.863
		s38.863,17.434,38.863,38.863S84.688,95.398,63.258,95.398z M63.258,22.671c-18.672,0-33.863,15.191-33.863,33.863
		s15.191,33.864,33.863,33.864s33.863-15.191,33.863-33.864S81.93,22.671,63.258,22.671z"/>
</g>
<circle class="st1" cx="63.258" cy="56.534" r="22.433"/>
<path class="st2" d="M104.594,144.952c-0.145-0.174-0.49-0.641-0.641-0.813C97.914,137.297,86.721,132.7,73.9,132.7
	c-12.773,0-23.932,4.564-29.984,11.363c-0.254,0.225-0.426,0.557-0.605,0.844c-0.365,0.574-0.639,1.17-0.639,1.9
	c0,2.037,1.654,3.689,3.691,3.689c0.971,0,2.117-0.723,3.166-1.814c4.406-5.373,13.639-9.084,24.354-9.084
	c10.74,0,19.992,3.729,24.387,9.123c1.252,1.283,2.162,1.775,3.143,1.775c2.037,0,3.689-1.652,3.689-3.689
	C105.102,146,104.984,145.715,104.594,144.952z"/>
</svg>
