<?xml version="1.0" encoding="utf-8"?>
<!-- Generator: Adobe Illustrator 25.0.0, SVG Export Plug-In . SVG Version: 6.00 Build 0)  -->
<svg version="1.1" id="图层_1" xmlns="http://www.w3.org/2000/svg" xmlns:xlink="http://www.w3.org/1999/xlink" x="0px" y="0px"
	 viewBox="0 0 158.3 44.1" style="enable-background:new 0 0 158.3 44.1;" xml:space="preserve">
<style type="text/css">
	.st0{fill-rule:evenodd;clip-rule:evenodd;fill:#FFFFFF;}
	.st1{fill-rule:evenodd;clip-rule:evenodd;fill:#194189;}
	.st2{clip-path:url(#SVGID_2_);}
	.st3{opacity:0.2;fill-rule:evenodd;clip-rule:evenodd;fill:#FEFEFE;enable-background:new    ;}
	.st4{opacity:0.5;fill-rule:evenodd;clip-rule:evenodd;fill:#FEFEFE;enable-background:new    ;}
	.st5{clip-path:url(#SVGID_4_);}
	.st6{clip-path:url(#SVGID_6_);}
	.st7{clip-path:url(#SVGID_8_);}
	.st8{clip-path:url(#SVGID_10_);}
	.st9{clip-path:url(#SVGID_12_);}
</style>
<g id="图层_2_1_">
	<path class="st0" d="M1.2,4c0,0,0,2.9,0,7.1c0,2-0.1,4.3,0,6.7C1.3,23.6,0.5,28.9,3.1,34c2.6,5,8,7.7,12.1,8.9
		c2.1,0.6,3.5,1.1,3.5,1.1s1.6-0.6,3.8-1.3c4.1-1.4,9.3-3.9,11.7-8.8c2.5-5.1,1.9-10.4,1.8-16.1c0-2.6,0-5,0-6.8
		c-0.1-6.8,0-7.1,0-7.1s-2.7-0.7-6.3-1.7C26.6,1.4,21.2,0.3,19,0.3c-2.6,0-7.3,0.8-10.4,1.6C4.4,3,1.2,4,1.2,4L1.2,4z"/>
</g>
<g id="图层_1_1_">
	<g>
		<path class="st0" d="M92.1,10.5c1.4,0.5,2.9,1.1,4.3,1.6c0.3,0.3,0.6,1,0.2,1.6c-1,1.4-4.9,0.9-6.8,1.2c-1.3,1-2.7,1.9-4,2.9
			c0,0.1,0,0.1,0,0.2c0.1,0.1,0.2,0.3,0.4,0.4c1,0.2,2.2,0.2,2.9-0.1c0.3-0.6,0.7-0.8,1.2-1.2c0.9,0.2,1,0.7,1.5,1.1
			c3.5-1.1,5.8-1,8.1,1.8c-0.1,3.1-0.6,6.2-1.6,9.3c-0.7,1.1-3.9,2-5.5,1.8c-0.4-0.7-1.3-1.3-1.3-2.2c0.9,0.3,1.2,1,2.2,1.3
			c1.1-0.5,2-1.5,2.6-2.6c0.9-1.7,0.7-7.2-0.4-7.9c-0.8-0.5-1.5,0.1-2,0.3c-2.2,0.9-2.4,0.3-3.6,2.9c0.1,0,0.2,0,0.3,0
			c0.7-0.2,1.3-0.4,2.1-0.1c0,0.1,0,0.1,0,0.2c0,0.2-0.1,0.3-0.1,0.5c-0.6,0.9-2.8,1-3.1,1.7c0.1,0.2,0.1,0.5,0.2,0.7
			c-0.2,0-0.4,0.1-0.7,0.1c0,0,0,0,0,0.1c0.1,0.1,0.1,0.2,0.2,0.2c1,0,3.4-0.7,4.1-0.2c0,0.1,0,0.3,0,0.4c-1.2,0.9-2.6,0.6-4.2,1
			c-0.1,0.8-0.1,1.5-0.5,2s-1.5,0.6-1.9,0.3c0.9-4.3-3,0.1-4.2-2.6c0-0.2,0-0.2,0.1-0.4c1-0.2,2.9,0.1,3.9-0.3c0-0.1,0-0.2,0.1-0.4
			c-0.1-0.3-0.2-0.6-0.3-0.9c-1.2-0.1-2.2-0.3-2.8-0.9c0-0.2,0.1-0.3,0.1-0.5c2.4-0.3,4.3-0.9,5.5-2.8c0-0.1,0-0.3,0-0.4
			c-0.1,0-0.2,0-0.3,0c-1.3,0.8-2,2.5-4.2,1.7c-0.8-1-1.6-3.4-0.2-4.8c0.8-0.8,2.5-0.8,2.9-2.3C84.7,15,83,16,81.4,14
			c0-0.1,0-0.3,0.1-0.4c1.6-1.6,4.5-0.9,7.1-1c0.9-2.6,0.2-5,0.2-7.3c0-2.2,1-3.1,2.3-1.9c0,0.1,0,0.2,0,0.3
			c-0.3,0.2-0.5,0.4-0.8,0.7c-0.1,0.7,0.2,1.2,0.3,1.8c0.2,1.7-0.9,5.1-0.4,6.2c0.4,0.6,2.3,0.3,2.9,0.2c0-0.1,0.1-0.2,0.1-0.3
			C92.6,11.8,92.1,11.4,92.1,10.5L92.1,10.5z M82,18.5c-0.9,0.2-2,0.1-2.7,0.6C77,21,77.7,26.7,78.6,29c0.1,0,0.2,0,0.4,0.1
			c2.2-2.8-1.4-7,1-9.7c0.2,0.1,0.5,0.2,0.7,0.3c0.5-0.3,0.8-0.7,1.4-0.9C82.1,18.6,82.1,18.6,82,18.5z"/>
		<path class="st0" d="M117.6,4.9c0.1,0,0.3,0,0.4,0c0.2,0.2,0.4,0.3,0.6,0.5c0.1,0.8-0.3,1.3-0.1,2c0.3,0.4,0.6,0.8,0.8,1.2
			c1,2.1,1.3,3.5,3,4.6c1.1,0.8,2.7-0.6,3.5,0.7c0.1,0.5,0.2,1,0.2,1.5c-0.5,0.4-0.7,1-1.4,1.2c-0.6,0-1.2-0.1-1.8-0.1
			c-1.3-0.1-3.7,0.5-4.4,1c-0.6,3.4-3,7.1-5.4,9.2c-0.9,0.5-1.7,1.1-2.6,1.6c-0.8,0.6-1.9,1.4-3.1,1.6l-0.1-0.1
			c0.2-0.5,2.5-2.5,3.1-3c2.3-2.3,4.6-5.8,5.8-8.9c-0.1-0.1-0.1-0.2-0.2-0.3c-2.1,0.3-3.9,0.7-5.5-0.1c-0.2-0.5-0.4-0.7-0.5-1.4
			c0.9-0.9,1.8-1.2,3.4-1.6c1-0.2,2.6,0.4,3.4-0.3C119.1,12.8,117.1,7.3,117.6,4.9L117.6,4.9z M118.8,10.3c-0.2,0.9,0.3,3,0.7,3.6
			c0.6,0,1,0,1.5-0.2c0-0.2,0-0.4,0.1-0.6c-0.5-0.7-1.1-0.7-1.6-1.2c-0.2-0.5-0.3-1.1-0.5-1.6C119,10.3,118.9,10.3,118.8,10.3
			L118.8,10.3z M120.1,20.8c-0.5,1.1-0.1,2.3,0.6,3.2c0.6,0.8,1.4,1.3,2.1,2c1.4,1.6,2.7,3.8,4.6,4.7c0.2,0.1,1.3-0.7,1.6-0.9
			c0.1-0.1,0.1-0.3,0.2-0.4c-0.3-1.2-1.2-1.7-1.8-2.5C125.5,24.9,123.4,20.5,120.1,20.8z"/>
		<path class="st0" d="M60.8,3.8c1,0.3,1.2,0.6,1.6,1.1c-0.2,1.2-1.2,2.6-1.5,3.9c-0.3,1-0.5,1.9-0.8,2.9c-0.4,0.8-1.2,2.2-1.2,3.1
			c3.1,0.7,5.7-1.4,8.2-2.1c0.2,0.1,0.3,0.3,0.5,0.4c0,0.1,0,0.1,0,0.2c-1,2.5-9.8,4.6-12.5,3.1c-2.1,3.1-4.2,6.2-6.1,9.7
			c-0.9,1.7-0.6,3.6-2.5,4c-0.1-0.1-0.2-0.2-0.3-0.3c0.2-0.7,0.3-1.5,0.5-2.2c0.5-0.9,1.6-1.8,2.1-2.5c1.2-1.9,1.9-3.7,3.2-5.5
			c1.6-2.3,3.4-4.6,4.8-7.2C58.7,9.2,58.1,5.4,60.8,3.8L60.8,3.8z M49.1,21.7c0.8-2.3,0.9-4.6-0.2-6c-0.5-0.7-1.1-1.1-1.3-1.8
			c0.4-1.3,4-0.3,5.3,0.2c0.9-0.2,1.3-0.5,1.8-1.5c-1.3-2.2-2.6-4.3-4-6.5c-0.3-0.3-0.8-0.3-1.2-0.3c-2.4,1.6,1,5.1,1.6,6.7
			c-1.1,0.8-2.9-0.3-4.3-0.1c-0.5,0.1-1,0.6-1.4,1c-2,1.9,1.6,4.5,2.6,6c0.2,0.7,0.4,1.4,0.6,2.1C48.9,21.6,48.9,21.6,49.1,21.7
			L49.1,21.7z M60.3,30.8c-0.4,0.8-1.3,0.8-1.4,1.4v0.1c2.2,0.6,4.5-0.5,5.6-2.1c0.4-1.9,0.9-3.1,0.8-5.2c0.1-0.1,0.2-0.2,0.3-0.4
			c0.5-0.1,3.1-0.4,3.4-0.6c-0.1-1.7-2.1-1.2-3.4-1.4c0,0,0,0-0.1,0c-0.1-0.8,0.5-1.9,0.3-2.7c-0.6-2.7-4.4-0.7-6.2-1c0,0,0,0,0-0.1
			c-0.2-0.3-0.2-0.5-0.2-0.8c0.3-0.3,0.6-0.7,1-1c-0.1,0-0.2-0.1-0.3-0.1c-0.8,0.7-1.6,1.4-2.3,2.1c-1,1.4-1.1,3.4-2.3,4.2
			c-0.9,0.6-3,0.1-4.1,0.2c-0.5,0.7,0,1.1,0,1.8c0.8,0.2,2.1-0.1,2.9-0.2c0.1,0,0.2,0.1,0.3,0.1C53.6,29.6,56.2,29.6,60.3,30.8
			L60.3,30.8z M62.6,20.2c-0.9,0.3-1.8,0.5-2.7,0.8c-0.5,0-0.9,0-1.4,0h-0.1c-0.2,0.6-0.4,1.2-0.6,1.8c0.5,0.2,0.8,0.1,1.2,0
			c0.2-0.7,0.2-1.2,0.8-1.2c0.4,0.4,0.3,0.9,0.9,1.2c0.7,0,1.6,0.1,2.3-0.1c0.1-0.7,0.2-1.9-0.1-2.4C62.7,20.3,62.6,20.3,62.6,20.2
			L62.6,20.2z M62.2,24.8c-0.3,0.1-0.7,0-1,0.3c-1.1,1-0.3,2.8-2.4,2.2c-0.1-0.2-0.2-0.2-0.2-0.5c0.1-0.5,0.2-1,0.3-1.5
			c-0.1-0.1-0.1-0.2-0.2-0.2c-1.1,0.1-2.3-0.3-2.3,1.1c0,0.4-0.1,0.7,0.1,1c0.9,1.2,4.3,1.9,5.6,1.5c0.5-1.3,0.8-2.5,0.7-3.7
			C62.6,24.9,62.4,24.8,62.2,24.8z"/>
		<path class="st0" d="M147.5,21.8c0.4-0.1,0.8-0.2,1.1-0.4c0.6,1.5,2.3,1.9,3.6,2c0.5,0,1.1-0.3,1.5,0c1.1,2.2-2.5,1.4-3.5,2.3
			c0.3,1.9,0.7,1.6,0.2,3.5c-0.2,0.7-2.5,2.8-3.2,2.8c-2.1,0-4.3-2-5.3-3.9L142,28c1.8,0.1,2.8,2.6,4.7,2.2c1.4-1.1,2-2.3,1.8-4.2
			c-0.2,0-0.4-0.1-0.6-0.1c-1.8,0.9-5.2,0.9-6.2-0.4c0-0.7,0.1-1.2,0.5-1.6c1.1-0.1,5.2-0.1,5.3-1C147.4,22.4,147.4,22.1,147.5,21.8
			L147.5,21.8z M152.1,4.3c-1.1,1.1-2.8,3.7-4.2,4.2c-0.6-0.3-1-0.6-1.7-0.7c-0.6,0.5-0.8,1-1.5,1.3c-0.8-0.4-0.9-1.3-1.9-1.3
			c-0.3,0-0.7,0.3-0.9,0.5c-1.4,1.3-0.9,3.3,0.6,4.5c0.7,0.6,3.2,1.1,3.7-0.4c0.2-0.6,0.1-1.1,0.1-1.8c0-0.1,0-0.1,0-0.2
			c0.5,0,1,0,1.5,0.1c0.7-0.6,0.9-1.4,1.4-2.1c0.8-0.9,1.7-1.8,2.5-2.8c0.2,0,0.3-0.1,0.5-0.1c0.1,0.1,0.2,0.3,0.3,0.4
			c-0.1,5.7-6.3,7.5-11.3,10.7c0,0.1-0.1,0.2-0.1,0.3c0.4,1,1.7,1.7,2.9,1.2c2.8-1.3,9.6-5.1,11.9-2.5c1.4,1.5-2.9,3.8-5,4
			c-0.1,0-0.1,0-0.2,0c-1-3.8-4.9-0.8-6.4,0.7c0,0.1,0,0.3,0,0.4c0.1,0.1,0.2,0.1,0.4,0.2c1.4-0.2,2-1.1,3.8-1.2
			c0.1,0.1,0.2,0.2,0.3,0.3c0,0.5,0,1-0.1,1.5c0.8-0.4,1.3-1,1.9-1.3c0.5-0.2,0.6,0.1,1,0.1c3.3-0.1,6-3.6,6.2-5.5
			c-0.8-2.2-4-1.7-6.1-1.6c-0.9,0.2-1.8,0.4-2.6,0.5c-0.1,0-0.2,0-0.2-0.1s-0.1-0.2-0.1-0.3c2-1.8,4.9-3.7,5.5-6.3
			c0.3-1.1-0.3-2.8-1.5-3C152.5,4.2,152.3,4.3,152.1,4.3L152.1,4.3z M138.3,15.3c0.2,0,0.3,0,0.5,0c0.7,1.8,2.5,4.6,0.6,5.5
			C136.6,20.5,137.6,16.8,138.3,15.3z"/>
	</g>
	<path class="st0" d="M51,34.5c0-0.1,0-0.2-0.1-0.2c0,0-0.1-0.1-0.2-0.1h-0.6v-0.1c0.3,0,0.9,0,1.9,0c0.3,0,0.6,0,0.8,0v0.1L52,34.3
		c-0.1,0-0.2,0-0.2,0.1c0,0,0,0.1,0,0.2v3.9c0,0.1,0,0.2,0,0.2s0.1,0.1,0.2,0.1l0.8,0.1V39c-0.4,0-0.9,0-1.7,0c-0.4,0-0.8,0-1.2,0
		v-0.1l0.7-0.1c0.1,0,0.1,0,0.2-0.1c0-0.1,0-0.1,0-0.3v-1.8h-4v1.8c0,0.1,0,0.2,0,0.3c0,0,0.1,0.1,0.2,0.1l0.7,0.1V39
		c-0.4,0-0.8,0-1.2,0c-0.8,0-1.3,0-1.7,0v-0.1l0.9-0.1c0.1,0,0.2,0,0.2-0.1c0,0,0.1-0.1,0.1-0.2v-3.9c0-0.1,0-0.2-0.1-0.2
		c0,0-0.1-0.1-0.2-0.1h-0.6v-0.1c0.3,0,0.9,0,1.9,0c0.3,0,0.6,0,0.9,0v0.1l-0.8,0.1c-0.1,0-0.2,0-0.2,0.1c0,0,0,0.1,0,0.2v1.9h4
		L51,34.5L51,34.5z M55.7,36.7l-0.9,1.8c0,0.1,0,0.1,0,0.1s0,0.1,0.1,0.1c0,0,0.1,0,0.3,0H56V39c-0.1,0-0.6,0-1.4,0
		c-0.8,0-1.2,0-1.4,0v-0.1h0.7c0.2,0,0.4-0.1,0.5-0.3l2.5-4.7h0.3l2.4,4.6c0.1,0.1,0.1,0.1,0.1,0.2c0,0,0.1,0.1,0.2,0.1l0.6,0.1V39
		c-0.4,0-0.9,0-1.4,0c-0.6,0-1.1,0-1.4,0v-0.1l0.7-0.1c0.1,0,0.2,0,0.3-0.1c0.1,0,0.1-0.1,0.1-0.1s0-0.1-0.1-0.2l-0.9-1.7L55.7,36.7
		L55.7,36.7z M57.8,36.6l-1-2l-1,2H57.8L57.8,36.6z M62.2,38.5v-4c0-0.1,0-0.2-0.1-0.2c0,0-0.1-0.1-0.2-0.1l-1-0.1V34
		c0.1,0,0.9,0,2.3,0c0.4,0,0.8,0,1,0v0.1l-1,0.1c-0.1,0-0.2,0-0.2,0.1c0,0-0.1,0.1-0.1,0.2v4c0,0.1,0,0.1,0.1,0.2c0,0,0.1,0,0.2,0.1
		h1V39c-0.3,0-0.9,0-1.7,0s-1.4,0-1.7,0v-0.2h1c0.1,0,0.2,0,0.2-0.1C62.2,38.7,62.2,38.6,62.2,38.5L62.2,38.5z M66.2,38.4
		c0,0.1,0,0.2,0.1,0.3c0,0,0.1,0.1,0.3,0.1l1,0.1V39c-0.4,0-0.9,0-1.4,0c-0.4,0-0.9,0-1.4,0v-0.1l0.6-0.1c0.3,0,0.4-0.1,0.5-0.1
		s0.1-0.1,0.1-0.2V35c0-0.2,0-0.4-0.1-0.5s-0.2-0.2-0.4-0.2l-0.7-0.1v-0.1H66c0.2,0,0.3,0,0.3,0c0.1,0,0.1,0.1,0.3,0.2l5,3.8
		l-0.1-3.5c0-0.1,0-0.2-0.1-0.3c-0.1,0-0.2-0.1-0.3-0.1l-0.9-0.1V34c0.2,0,0.6,0,1.2,0s1,0,1.2,0v0.1h-0.5c-0.1,0-0.2,0-0.2,0.1
		s0,0.2,0,0.3l0.1,4.4h-0.3l-5.5-4.1V38.4L66.2,38.4z M75.6,36.7l-0.9,1.8c0,0.1,0,0.1,0,0.1s0,0.1,0.1,0.1c0,0,0.1,0,0.3,0h0.8V39
		c-0.1,0-0.6,0-1.4,0s-1.2,0-1.4,0v-0.1h0.7c0.2,0,0.4-0.1,0.5-0.3l2.5-4.7H77l2.4,4.6c0.1,0.1,0.1,0.1,0.1,0.2c0,0,0.1,0.1,0.2,0.1
		l0.6,0.1V39c-0.4,0-0.9,0-1.4,0c-0.6,0-1.1,0-1.4,0v-0.1l0.7-0.1c0.1,0,0.2,0,0.3-0.1c0.1,0,0.1-0.1,0.1-0.1s0-0.1-0.1-0.2
		l-0.9-1.7L75.6,36.7L75.6,36.7z M77.6,36.6l-1-2l-1,2H77.6L77.6,36.6z M82.2,38.4c0,0.1,0,0.2,0.1,0.3c0,0,0.1,0.1,0.3,0.1l1,0.1
		V39c-0.4,0-0.9,0-1.4,0c-0.4,0-0.9,0-1.4,0v-0.1l0.6-0.1c0.3,0,0.4-0.1,0.5-0.1s0.1-0.1,0.1-0.2V35c0-0.2,0-0.4-0.1-0.5
		s-0.2-0.2-0.4-0.2l-0.7-0.1v-0.1H82c0.2,0,0.3,0,0.3,0c0.1,0,0.1,0.1,0.3,0.2l5,3.8l-0.1-3.5c0-0.1,0-0.2-0.1-0.3
		c-0.1,0-0.2-0.1-0.3-0.1l-0.9-0.1V34c0.2,0,0.6,0,1.2,0s1,0,1.2,0v0.1h-0.5c-0.1,0-0.2,0-0.2,0.1s0,0.2,0,0.3l0.1,4.4h-0.3
		l-5.5-4.1V38.4L82.2,38.4z M95,34.1L95,34.1l-0.7,0.2c-0.1,0-0.2,0-0.3,0.1c-0.1,0.1-0.1,0.2-0.1,0.3v2.8c0,0.5,0.1,0.9,0.4,1.1
		c0.3,0.2,0.8,0.3,1.4,0.3c0.9,0,1.5-0.1,1.8-0.4c0.3-0.3,0.5-0.8,0.5-1.6v-2.2c0-0.2-0.2-0.3-0.5-0.4L97,34.2v-0.1
		c0.2,0,0.6,0,1.1,0c0.6,0,1,0,1.1,0v0.1l-0.6,0.1c-0.2,0-0.2,0.1-0.2,0.4V37c0,0.7-0.2,1.3-0.6,1.6s-1,0.5-2,0.5
		c-0.9,0-1.6-0.1-2.1-0.4c-0.5-0.3-0.7-0.6-0.7-1.1v-2.9c0-0.1,0-0.2-0.1-0.3c0-0.1-0.1-0.1-0.2-0.1L92,34.2v-0.1c0.5,0,1,0,1.5,0
		C94.2,34.1,94.7,34.1,95,34.1L95,34.1z M101.3,38.4c0,0.1,0,0.2,0.1,0.3c0,0,0.1,0.1,0.3,0.1l1,0.1V39c-0.4,0-0.9,0-1.4,0
		c-0.4,0-0.9,0-1.4,0v-0.1l0.6-0.1c0.3,0,0.4-0.1,0.5-0.1s0.1-0.1,0.1-0.2V35c0-0.2,0-0.4-0.1-0.5s-0.2-0.2-0.4-0.2l-0.7-0.1v-0.1
		h1.3c0.2,0,0.3,0,0.3,0c0.1,0,0.1,0.1,0.3,0.2l5,3.8l-0.1-3.5c0-0.1,0-0.2-0.1-0.3c-0.1,0-0.2-0.1-0.3-0.1l-0.9-0.1V34
		c0.2,0,0.6,0,1.2,0s1,0,1.2,0v0.1h-0.5c-0.1,0-0.2,0-0.2,0.1s0,0.2,0,0.3l0.1,4.4h-0.3l-5.5-4.1L101.3,38.4L101.3,38.4z
		 M109.7,38.5v-4c0-0.1,0-0.2-0.1-0.2c0,0-0.1-0.1-0.2-0.1l-1-0.1V34c0.1,0,0.9,0,2.3,0c0.4,0,0.8,0,1,0v0.1l-1,0.1
		c-0.1,0-0.2,0-0.2,0.1c0,0-0.1,0.1-0.1,0.2v4c0,0.1,0,0.1,0.1,0.2c0,0,0.1,0,0.2,0.1h1V39c-0.3,0-0.9,0-1.7,0c-0.8,0-1.4,0-1.7,0
		v-0.2h1c0.1,0,0.2,0,0.2-0.1C109.7,38.7,109.7,38.6,109.7,38.5L109.7,38.5z M119.6,34.2l-0.6,0.1c-0.2,0-0.4,0.1-0.5,0.3l-2.5,4.6
		h-0.2l-2.7-4.5c-0.1-0.1-0.2-0.2-0.2-0.3c-0.1,0-0.1-0.1-0.3-0.1l-0.6-0.1v-0.1c0.3,0,0.8,0,1.6,0c0.7,0,1.3,0,1.6,0v0.1h-0.7
		c-0.2,0-0.3,0-0.4,0.1c-0.1,0-0.1,0.1-0.1,0.2c0,0.1,0.1,0.2,0.2,0.4l2,3.4l1.8-3.5c0.1-0.2,0.1-0.3,0.1-0.3c0-0.1,0-0.1-0.1-0.2
		c-0.1,0-0.3-0.1-0.6-0.1H117v-0.1c0.2,0,0.7,0,1.4,0c0.8,0,1.2,0,1.4,0v0.1H119.6z M126.5,37.7c-0.2,0.5-0.3,0.9-0.3,1.3
		c-0.9,0-2,0-3.2,0s-2.3,0-3.2,0v-0.1h0.8c0.1,0,0.2,0,0.3-0.1c0,0,0.1-0.1,0.1-0.2v-3.9c0-0.1,0-0.2-0.1-0.3c0-0.1-0.1-0.1-0.2-0.1
		l-0.8-0.1v-0.1c0.6,0,1.6,0,3,0s2.4,0,3,0c0,0.2,0,0.4,0,0.6c0,0.2,0,0.3,0,0.5h-0.1c-0.2-0.3-0.3-0.5-0.4-0.6s-0.2-0.2-0.2-0.2
		c-0.1,0-0.2-0.1-0.3-0.1h-2.6c-0.1,0-0.2,0-0.3,0.1c0,0-0.1,0.1-0.1,0.3v1.8h2.5c0.1,0,0.2,0,0.3,0c0.1,0,0.1-0.1,0.1-0.2l0.1-0.5
		h0.2c0,0.3,0,0.6,0,0.9c0,0.3,0,0.6,0,0.9H125l-0.2-0.6c-0.1-0.1-0.1-0.2-0.2-0.2s-0.2-0.1-0.4-0.1H122v1.9c0,0.1,0,0.2,0.1,0.2
		s0.2,0.1,0.4,0.1h2.5c0.2,0,0.4,0,0.6-0.1c0.2,0,0.3-0.2,0.5-0.3c0.2-0.2,0.3-0.4,0.5-0.7h-0.1V37.7z M127,38.9h0.6
		c0.2,0,0.4,0,0.4-0.1c0.1,0,0.1-0.1,0.1-0.3v-3.6c0-0.2,0-0.3-0.1-0.3c-0.1-0.1-0.2-0.1-0.5-0.2l-0.5-0.1v-0.1c0.3,0,0.6,0,0.7,0
		l1.8-0.1c0.1,0,0.3,0,0.4,0c0.8,0,1.4,0.1,1.7,0.3c0.4,0.2,0.6,0.5,0.6,0.9c0,0.3-0.1,0.5-0.3,0.7s-0.5,0.3-1,0.5l1.2,1.5
		c0.3,0.4,0.6,0.6,0.8,0.7c0.2,0.1,0.5,0.1,0.9,0.2V39c-0.3,0-0.7,0-1.1,0c-0.4,0-0.6,0-0.8,0l-1.7-2.2c-0.1-0.2-0.3-0.2-0.6-0.2
		H129v1.8c0,0.1,0,0.2,0.1,0.3s0.2,0.1,0.4,0.1l0.5,0.1V39c-0.5,0-1,0-1.5,0C127.9,39,127.4,39,127,38.9L127,38.9L127,38.9z
		 M129.1,36.3c1.5,0,2.2-0.3,2.2-1c0-0.3-0.2-0.6-0.5-0.8s-0.8-0.3-1.4-0.3c-0.1,0-0.2,0-0.4,0L129.1,36.3L129.1,36.3z M137.8,35.2
		c-0.2-0.7-0.7-1-1.6-1c-0.4,0-0.7,0.1-1,0.2c-0.3,0.2-0.4,0.4-0.4,0.6c0,0.2,0.1,0.3,0.3,0.5c0.2,0.1,0.7,0.3,1.4,0.6
		s1.2,0.5,1.5,0.7s0.5,0.5,0.5,0.9s-0.2,0.8-0.6,1.1c-0.4,0.3-1,0.4-1.8,0.4c-0.7,0-1.4-0.1-2-0.4l0.1-1.2h0.2
		c0.1,0.4,0.3,0.7,0.7,0.9s0.8,0.4,1.2,0.4s0.8-0.1,1.1-0.3s0.4-0.4,0.4-0.7c0-0.2-0.1-0.4-0.4-0.6c-0.2-0.2-0.6-0.3-1.2-0.5
		c-0.8-0.3-1.3-0.5-1.6-0.8c-0.3-0.2-0.5-0.5-0.5-0.8c0-0.4,0.2-0.7,0.6-0.9c0.4-0.2,0.9-0.4,1.6-0.4c0.6,0,1.2,0.1,1.6,0.3v0.9
		L137.8,35.2L137.8,35.2z M140.5,38.5v-4c0-0.1,0-0.2-0.1-0.2c0,0-0.1-0.1-0.2-0.1l-1-0.1V34c0.1,0,0.9,0,2.3,0c0.4,0,0.8,0,1,0v0.1
		l-1,0.1c-0.1,0-0.2,0-0.2,0.1c0,0-0.1,0.1-0.1,0.2v4c0,0.1,0,0.1,0.1,0.2c0,0,0.1,0,0.2,0.1h1V39c-0.3,0-0.9,0-1.7,0s-1.4,0-1.7,0
		v-0.2h1c0.1,0,0.2,0,0.2-0.1C140.5,38.7,140.5,38.6,140.5,38.5L140.5,38.5z M143.3,33.9c0.1-0.1,0.1-0.2,0.2-0.2
		c0.1,0,0.1,0.1,0.2,0.2c0.1,0.1,0.1,0.1,0.2,0.2c0.1,0,0.2,0,0.3,0h4.3c0.3,0,0.4,0,0.5,0s0.2-0.1,0.2-0.2c0-0.1,0.1-0.1,0.2-0.1
		c0.1,0,0.1,0.1,0.1,0.2v1.2c0,0.1,0,0.1-0.1,0.1s-0.1-0.1-0.2-0.2c-0.1-0.3-0.2-0.4-0.3-0.5s-0.4-0.1-0.8-0.1h-1.4v4
		c0,0.1,0,0.2,0.1,0.3c0,0,0.1,0.1,0.3,0.1L148,39l0,0c-0.4,0-1,0-1.7,0c-1,0-1.5,0-1.7,0v-0.1l0.8-0.1c0.2,0,0.4-0.1,0.4-0.1
		c0.1-0.1,0.1-0.2,0.1-0.3v-4h-1.4c-0.2,0-0.4,0-0.6,0.1c-0.2,0.1-0.4,0.3-0.7,0.6c-0.1,0.1-0.2,0.2-0.3,0.2c0,0-0.1,0-0.1-0.1
		s0-0.1,0.1-0.2L143.3,33.9L143.3,33.9z M154.2,38.8c-0.3,0-0.4-0.1-0.4-0.3v-1.3c0-0.2,0-0.3,0-0.4c0-0.1,0.1-0.1,0.1-0.2l1.8-1.8
		c0.4-0.4,0.7-0.6,0.9-0.6l0.4-0.1V34c-0.2,0-0.6,0-1.2,0c-0.7,0-1.1,0-1.2,0v0.1l0.7,0.1c0.2,0,0.3,0.1,0.3,0.2
		c0,0.1-0.1,0.2-0.2,0.3l-1.9,1.9l-2-2.2v-0.1c0-0.1,0.1-0.1,0.3-0.1l0.7-0.1V34c-0.3,0-0.8,0-1.5,0c-0.8,0-1.3,0-1.5,0v0.1h0.5
		c0.2,0,0.4,0.2,0.7,0.5l2,2.1c0.1,0.1,0.2,0.3,0.2,0.4v1.3c0,0.1,0,0.1-0.1,0.2c-0.1,0-0.2,0.1-0.3,0.1l-0.8,0.1V39
		c0.5,0,1,0,1.7,0c0.3,0,0.8,0,1.7,0v-0.1L154.2,38.8z"/>
	<g>
		<g>
			<path class="st1" d="M1.2,4c0,0,0,2.9,0,7.1c0,2-0.1,4.3,0,6.7C1.3,23.6,0.5,28.9,3.1,34c2.6,5,8,7.7,12.1,8.9
				c2.1,0.6,3.5,1.1,3.5,1.1s1.6-0.6,3.8-1.3c4.1-1.4,9.3-3.9,11.7-8.8c2.5-5.1,1.9-10.4,1.8-16.1c0-2.6,0-5,0-6.8
				c-0.1-6.8,0-7.1,0-7.1s-2.7-0.7-6.3-1.7C26.6,1.4,21.2,0.3,19,0.3c-2.6,0-7.3,0.8-10.4,1.6C4.4,3,1.2,4,1.2,4L1.2,4z M2.1,4.9
				c5-1.6,12-3.9,17-3.8c4.4,0,11.1,2.3,16.1,3.8c0,0.1-0.1,0.3,0,6.7c0,1.7,0,4,0,6.5c0,5.4,0.5,10.5-1.7,15.4
				c-3.2,6.4-9,7.7-14.8,9.7C12.5,40.9,7.2,40,3.8,33.3c-2.2-4.7-1.6-10-1.7-15.4c0-2.4,0-4.5,0-6.4C2.1,7.7,2.1,4.9,2.1,4.9z"/>
			<path class="st1" d="M2.5,5.3c0,0,0,2.7,0,6.6c0,1.9-0.1,4,0,6.3c0.1,5.3-0.5,10.4,1.7,15c3.4,6.5,8.5,7.4,14.6,9.6
				c5.7-2,11.4-3.3,14.5-9.5c2.1-4.9,1.7-9.8,1.7-15.1c0-2.4,0-4.6,0-6.3c-0.1-6.3,0-6.5,0-6.6c-5-1.5-11.6-3.7-15.9-3.7
				C14.2,1.5,7.4,3.7,2.5,5.3L2.5,5.3z M3,5.8c4.8-1.6,11.4-3.7,16.1-3.6c4.2,0,10.6,2.2,15.2,3.6c0,0.1-0.1,0.3,0,6.4
				c0,1.6,0,3.8,0,6.1c0,5.1,0.4,9.9-1.6,14.6c-3,6.1-8.5,7.3-14.1,9.2c-5.8-2.1-10.8-3-14.1-9.2C2.4,28.4,3,23.4,2.9,18.3
				c0-2.2,0-4.3,0-6.1C2.9,8.4,3,5.8,3,5.8z"/>
			<path class="st1" d="M7.5,10c0,0,1.8-0.7,4.4-1.4c1-0.3,2.2-0.6,3.4-0.8c1.1-0.2,2.2-0.5,3.4-0.4c1.2,0,2.3,0.2,3.4,0.4
				c1.1,0.2,2.4,0.5,3.4,0.8c1.8,0.6,4.3,1.4,4.3,1.4s0,3.5,0,8c0,1.4,0,2.8,0,4.3c0,1.8-0.1,4.1-0.3,5.3c-0.3,1.6-0.4,1.7-1,3.1
				c-0.9,2.3-3.4,4.2-7,5.6c-1.3,0.5-2.9,1.1-2.9,1.1s-1.6-0.6-2.9-1.1c-2.9-1.1-5.5-2.7-7-5.6c-0.4-0.9-0.8-2-1-3.2
				c-0.3-1.7-0.3-3.5-0.3-5.3c0-1.5,0-3,0-4.3C7.6,13.4,7.5,10,7.5,10L7.5,10z M22.3,32c-0.2,0.1-0.3,0.2-0.4,0.2
				c-0.1,0.1-0.1,0.2-0.1,0.3s0.1,0.2,0.2,0.3s0.2,0.1,0.4,0.1c0.2,0,0.3,0,0.4-0.1s0.2-0.2,0.2-0.3s0-0.2-0.1-0.3s-0.2-0.2-0.4-0.3
				c0.2-0.1,0.4-0.3,0.4-0.4s0-0.2-0.1-0.3c-0.1-0.1-0.2-0.1-0.4-0.1c-0.2,0-0.3,0-0.4,0.1c0,0.2,0,0.3,0,0.4s0,0.1,0,0.2
				s0.1,0.1,0.1,0.1C22.1,31.9,22.2,32,22.3,32L22.3,32z M22.5,31.9c0.2-0.1,0.2-0.2,0.2-0.4c0-0.1,0-0.2-0.1-0.2
				c-0.1-0.1-0.2-0.1-0.3-0.1c-0.1,0-0.2,0-0.2,0.1c-0.1,0-0.1,0.1-0.1,0.2s0,0.1,0,0.1s0.1,0.1,0.2,0.2
				C22.4,31.8,22.5,31.9,22.5,31.9L22.5,31.9z M22.4,32.1L22.4,32.1c-0.1,0-0.2,0.1-0.3,0.2C22,32.4,22,32.5,22,32.6s0,0.2,0.1,0.3
				s0.2,0.1,0.3,0.1c0.1,0,0.2,0,0.3-0.1c0.1-0.1,0.1-0.1,0.1-0.3c0-0.1,0-0.2-0.1-0.2C22.7,32.3,22.6,32.2,22.4,32.1L22.4,32.1z
				 M19.5,31.4h0.8l0.1-0.2l0,0l0,0c0,0,0,0-0.1,0h-0.8l-0.1,0.9c0.1-0.1,0.3-0.1,0.4-0.1s0.3,0,0.3,0.1c0.1,0.1,0.1,0.2,0.1,0.3
				s0,0.2-0.1,0.3s-0.2,0.1-0.4,0.1c-0.1,0-0.2,0-0.3-0.1c-0.1,0-0.2-0.1-0.2-0.1v0.1c0.1,0.1,0.2,0.1,0.3,0.2
				c0.1,0,0.2,0.1,0.3,0.1c0.2,0,0.3-0.1,0.5-0.2c0.1-0.1,0.2-0.3,0.2-0.4c0-0.2-0.1-0.3-0.2-0.4s-0.3-0.2-0.4-0.2s-0.2,0-0.3,0.1
				L19.5,31.4L19.5,31.4z M16.7,33.1c0.3-0.1,0.6-0.2,0.8-0.4c0.2-0.2,0.3-0.4,0.3-0.7c0-0.2-0.1-0.4-0.2-0.5s-0.3-0.2-0.5-0.2
				s-0.3,0.1-0.4,0.2s-0.2,0.3-0.2,0.4c0,0.2,0.1,0.3,0.2,0.4s0.2,0.2,0.4,0.2c0.1,0,0.2,0,0.3-0.1c0.1,0,0.2-0.1,0.2-0.2l0,0
				c0,0.1,0,0.3-0.1,0.4c-0.1,0.1-0.2,0.2-0.3,0.3C17.1,33,16.9,33,16.7,33.1L16.7,33.1L16.7,33.1z M17.2,32.4c0.1,0,0.2,0,0.3-0.1
				c0.1-0.1,0.1-0.2,0.1-0.2c0-0.1-0.1-0.3-0.2-0.4s-0.2-0.2-0.4-0.2c-0.1,0-0.2,0-0.2,0.1c-0.1,0.1-0.1,0.2-0.1,0.3s0,0.3,0.1,0.4
				C16.9,32.3,17,32.4,17.2,32.4L17.2,32.4z M14.4,31.4L14.4,31.4L14.4,31.4c0.1,0,0.1,0,0.1,0s0,0,0,0.1v1.3c0,0.1,0,0.1,0,0.1
				s0,0-0.1,0h-0.1l0,0h0.5l0,0c-0.1,0-0.1,0-0.1,0v-0.1v-1.6l0,0L14.4,31.4L14.4,31.4z M10.5,13.9v13.5h3v-6.2h3v-2.1h-3V14
				L10.5,13.9L10.5,13.9z M16.9,13.9v13.5h3v-7.3l3.8,7.3h3V14h-3v7.4L19.8,14L16.9,13.9L16.9,13.9z"/>
			<g>
				<g>
					<defs>
						<path id="SVGID_1_" d="M7.5,10c0,0,1.8-0.7,4.4-1.4c1-0.3,2.2-0.6,3.4-0.8c1.1-0.2,2.2-0.5,3.4-0.4c1.2,0,2.3,0.2,3.4,0.4
							c1.1,0.2,2.4,0.5,3.4,0.8c1.8,0.6,4.3,1.4,4.3,1.4s0,3.5,0,8c0,1.4,0,2.8,0,4.3c0,1.8-0.1,4.1-0.3,5.3c-0.3,1.6-0.4,1.7-1,3.1
							c-0.9,2.3-3.4,4.2-7,5.6c-1.3,0.5-2.9,1.1-2.9,1.1s-1.6-0.6-2.9-1.1c-2.9-1.1-5.5-2.7-7-5.6c-0.4-0.9-0.8-2-1-3.2
							c-0.3-1.7-0.3-3.5-0.3-5.3c0-1.5,0-3,0-4.3C7.6,13.4,7.5,10,7.5,10L7.5,10z M22.3,32c-0.2,0.1-0.3,0.2-0.4,0.2
							c-0.1,0.1-0.1,0.2-0.1,0.3s0.1,0.2,0.2,0.3s0.2,0.1,0.4,0.1c0.2,0,0.3,0,0.4-0.1s0.2-0.2,0.2-0.3s0-0.2-0.1-0.3
							s-0.2-0.2-0.4-0.3c0.2-0.1,0.4-0.3,0.4-0.4s0-0.2-0.1-0.3c-0.1-0.1-0.2-0.1-0.4-0.1c-0.2,0-0.3,0-0.4,0.1c0,0.2,0,0.3,0,0.4
							s0,0.1,0,0.2s0.1,0.1,0.1,0.1C22.1,31.9,22.2,32,22.3,32L22.3,32z M22.5,31.9c0.2-0.1,0.2-0.2,0.2-0.4c0-0.1,0-0.2-0.1-0.2
							c-0.1-0.1-0.2-0.1-0.3-0.1c-0.1,0-0.2,0-0.2,0.1c-0.1,0-0.1,0.1-0.1,0.2s0,0.1,0,0.1s0.1,0.1,0.2,0.2
							C22.4,31.8,22.5,31.9,22.5,31.9L22.5,31.9z M22.4,32.1L22.4,32.1c-0.1,0-0.2,0.1-0.3,0.2C22,32.4,22,32.5,22,32.6
							s0,0.2,0.1,0.3s0.2,0.1,0.3,0.1c0.1,0,0.2,0,0.3-0.1c0.1-0.1,0.1-0.1,0.1-0.3c0-0.1,0-0.2-0.1-0.2
							C22.7,32.3,22.6,32.2,22.4,32.1L22.4,32.1z M19.5,31.4h0.8l0.1-0.2l0,0l0,0c0,0,0,0-0.1,0h-0.8l-0.1,0.9
							c0.1-0.1,0.3-0.1,0.4-0.1s0.3,0,0.3,0.1c0.1,0.1,0.1,0.2,0.1,0.3s0,0.2-0.1,0.3s-0.2,0.1-0.4,0.1c-0.1,0-0.2,0-0.3-0.1
							c-0.1,0-0.2-0.1-0.2-0.1v0.1c0.1,0.1,0.2,0.1,0.3,0.2c0.1,0,0.2,0.1,0.3,0.1c0.2,0,0.3-0.1,0.5-0.2c0.1-0.1,0.2-0.3,0.2-0.4
							c0-0.2-0.1-0.3-0.2-0.4s-0.3-0.2-0.4-0.2s-0.2,0-0.3,0.1L19.5,31.4L19.5,31.4z M16.7,33.1c0.3-0.1,0.6-0.2,0.8-0.4
							c0.2-0.2,0.3-0.4,0.3-0.7c0-0.2-0.1-0.4-0.2-0.5s-0.3-0.2-0.5-0.2s-0.3,0.1-0.4,0.2s-0.2,0.3-0.2,0.4c0,0.2,0.1,0.3,0.2,0.4
							s0.2,0.2,0.4,0.2c0.1,0,0.2,0,0.3-0.1c0.1,0,0.2-0.1,0.2-0.2l0,0c0,0.1,0,0.3-0.1,0.4c-0.1,0.1-0.2,0.2-0.3,0.3
							C17.1,33,16.9,33,16.7,33.1L16.7,33.1L16.7,33.1z M17.2,32.4c0.1,0,0.2,0,0.3-0.1c0.1-0.1,0.1-0.2,0.1-0.2
							c0-0.1-0.1-0.3-0.2-0.4s-0.2-0.2-0.4-0.2c-0.1,0-0.2,0-0.2,0.1c-0.1,0.1-0.1,0.2-0.1,0.3s0,0.3,0.1,0.4
							C16.9,32.3,17,32.4,17.2,32.4L17.2,32.4z M14.4,31.4L14.4,31.4L14.4,31.4c0.1,0,0.1,0,0.1,0s0,0,0,0.1v1.3c0,0.1,0,0.1,0,0.1
							s0,0-0.1,0h-0.1l0,0h0.5l0,0c-0.1,0-0.1,0-0.1,0v-0.1v-1.6l0,0L14.4,31.4L14.4,31.4z M10.5,13.9v13.5h3v-6.2h3v-2.1h-3V14
							L10.5,13.9L10.5,13.9z M16.9,13.9v13.5h3v-7.3l3.8,7.3h3V14h-3v7.4L19.8,14L16.9,13.9L16.9,13.9z"/>
					</defs>
					<clipPath id="SVGID_2_">
						<use xlink:href="#SVGID_1_"  style="overflow:visible;"/>
					</clipPath>
					<g class="st2">
						<path class="st3" d="M26,8.9c0,0-0.1-0.1-0.3-0.2c-0.4-0.2-1.2-0.5-1.9-0.4c-0.5,0-0.9,0.3-1.2,0.5c-0.2,0.1-0.3,0.3-0.4,0.4
							C22,9.4,22,9.3,22,9.3c-0.1-0.1-0.5-0.3-0.9-0.5c-0.4-0.1-0.8-0.1-1.2,0c-1,0.2-1.4,0.9-1.5,1.1c-0.1,0.1,0,0.1,0.1,0
							c0.2-0.1,0.7-0.2,1.3-0.2c0.4,0,0.8,0.2,1,0.3c0.1,0,0.1,0,0,0.1h-0.1c-0.3,0-1.4,0.1-2.3,0.8c-0.7,0.6-1.1,1.5-1.2,1.9
							c-0.1,0.2,0,0.2,0.1,0.1c0.1-0.2,0.3-0.5,0.6-0.8c0.2-0.2,0.4-0.3,0.6-0.4c0.9-0.4,1.4-0.2,1.4-0.2s-0.8,0.7-1.1,1.6
							c-0.3,1.1,0.3,1.8,0.3,1.8s0.4-1.1,0.9-1.9c0.2-0.3,0.5-0.6,0.7-0.6c0.1,0,0.1,0.1,0.1,0.1s-0.3,0.7-0.2,1.3
							c0.1,0.4,0.4,0.8,0.6,0.9c0.1,0.1,0.1,0.1,0.1,0c0,0,0-0.1-0.1-0.1c0-0.2-0.1-0.4,0-0.7c0-0.3,0.1-0.6,0.1-0.6l0,0
							c0,0.1,0.1,0.3,0.4,0.3c0.3,0.1,0.5-0.3,0.5-0.3s0-0.1,0.1,0c0,0.3,0.1,1.5-0.1,2.7c-0.3,1.6-0.9,3.4-0.9,3.4l1.3,0.2
							c0,0,0.3-1.8,0.4-3.5c0.1-1.5-0.1-2.8-0.1-2.8s0.1,0,0.2,0s0.1-0.1,0.1-0.1s0-0.1,0,0c0.1,0.1,0.1,0.2,0.2,0.2
							c0.3,0,0.4-0.1,0.4-0.1h0.1c0,0.1,0.2,0.3,0.2,0.6c0.1,0.4,0.2,1,0.2,1s0.1-0.3,0.2-0.7s0.1-0.9,0-1.3
							c-0.2-0.9-0.9-1.3-0.9-1.3s-0.1-0.1,0.2-0.1c0.3,0,1.1,0.1,1.6,0.5c0.8,0.5,1.3,1.3,1.3,1.3s-0.1-1.4-1.2-2.3
							c-1.1-1-2.3-0.7-2.3-0.7s-0.1,0,0-0.1c0.1-0.2,0.6-0.6,1.1-0.7c0.4-0.5,0.7-0.6,1-0.6S25.9,9,26,9C26.2,9.1,26,8.9,26,8.9z"/>
						<g>
							<rect x="14.3" y="35.9" class="st4" width="8.5" height="0.5"/>
							<g>
								<g>
									<defs>
										<rect id="SVGID_3_" x="12.1" y="34.8" width="12.9" height="0.5"/>
									</defs>
									<clipPath id="SVGID_4_">
										<use xlink:href="#SVGID_3_"  style="overflow:visible;"/>
									</clipPath>
									<g class="st5">
									</g>
								</g>
							</g>
							<g>
								<g>
									<defs>
										<rect id="SVGID_5_" x="10.8" y="33.5" width="15.9" height="0.5"/>
									</defs>
									<clipPath id="SVGID_6_">
										<use xlink:href="#SVGID_5_"  style="overflow:visible;"/>
									</clipPath>
									<g class="st6">
									</g>
								</g>
							</g>
							<g>
								<g>
									<defs>
										<rect id="SVGID_7_" x="9.2" y="32.3" width="18.7" height="0.5"/>
									</defs>
									<clipPath id="SVGID_8_">
										<use xlink:href="#SVGID_7_"  style="overflow:visible;"/>
									</clipPath>
									<g class="st7">
									</g>
								</g>
							</g>
							<g>
								<g>
									<defs>
										<rect id="SVGID_9_" x="8.7" y="31.1" width="19.9" height="0.5"/>
									</defs>
									<clipPath id="SVGID_10_">
										<use xlink:href="#SVGID_9_"  style="overflow:visible;"/>
									</clipPath>
									<g transform="matrix(1 0 0 1 0 -1.907349e-06)" class="st8">
									</g>
								</g>
							</g>
							<g>
								<g>
									<defs>
										<rect id="SVGID_11_" x="8" y="29.6" width="21.6" height="0.5"/>
									</defs>
									<clipPath id="SVGID_12_">
										<use xlink:href="#SVGID_11_"  style="overflow:visible;"/>
									</clipPath>
									<g transform="matrix(1 0 0 1 0 0)" class="st9">
									</g>
								</g>
							</g>
						</g>
					</g>
				</g>
			</g>
			<g>
				<path class="st1" d="M6.3,13.8v0.9H6.2v-0.2c0-0.1,0-0.1,0-0.1H6.1H5.5v1h0.6c0.1,0,0.1,0,0.2,0v-0.1v-0.2h0.1V16H6.3v-0.2v-0.1
					c0,0,0,0-0.1,0H6.1H4.6c-0.1,0-0.1,0-0.1,0v0.1V16H4.4v-0.9h0.1v0.2c0,0.1,0,0.1,0.1,0.1h0.1h0.7v-1H4.7c-0.1,0-0.1,0-0.1,0v0.1
					v0.2H4.5v-0.9h0.1V14v0.1c0,0,0,0,0.1,0h0.1h1.5c0.1,0,0.1,0,0.1,0V14L6.3,13.8L6.3,13.8z"/>
				<path class="st1" d="M6.3,19.4v0.1l-1.9,0.8c-0.1,0-0.1,0.1-0.1,0.2v0.1H4.2v-0.9h0.1v0.1c0,0.1,0,0.2,0,0.2s0,0,0.1,0
					c0,0,0,0,0.1,0l0.4-0.2v-0.9l-0.3-0.1c-0.1,0-0.1,0-0.2,0c0,0-0.1,0-0.1,0.1c0,0,0,0.1-0.1,0.2v0.1H4.1v-0.8h0.1
					c0,0.1,0,0.2,0.1,0.2c0,0.1,0.1,0.1,0.2,0.1L6.3,19.4L6.3,19.4z M5.9,19.3L5,18.9v0.8L5.9,19.3z"/>
				<path class="st1" d="M6.2,26.2l0.1,0.5L5,28.3L6.2,28c0.1,0,0.2-0.1,0.2-0.1c0-0.1,0.1-0.1,0-0.2h0.1l0.2,0.8H6.6
					c0-0.1,0-0.1-0.1-0.2l-0.1-0.1c-0.1,0-0.1,0-0.2,0l-1.6,0.4v-0.1L6,26.8L4.7,27c-0.1,0-0.2,0.1-0.2,0.1c0,0.1-0.1,0.2,0,0.3H4.4
					l-0.2-0.8h0.1c0,0.1,0.1,0.2,0.1,0.2c0.1,0,0.2,0.1,0.2,0L6,26.5l0,0c0-0.1,0.1-0.1,0.1-0.1L6.2,26.2L6.2,26.2L6.2,26.2z"/>
				<path class="st1" d="M8.5,33.2l0.4,0.3l-0.1,2.1l0.8-0.9c0.1-0.1,0.1-0.2,0.1-0.3s0-0.1-0.1-0.2l0.1-0.1l0.6,0.5l-0.1,0.1
					c-0.1,0-0.1-0.1-0.1-0.1s-0.1,0-0.2,0c-0.1,0-0.1,0.1-0.2,0.1L8.6,36l-0.1,0l0.1-2.2l-0.8,1c-0.1,0.1-0.1,0.2-0.1,0.3
					s0.1,0.2,0.1,0.2l-0.1,0.1l-0.6-0.5l0.1-0.1c0.1,0.1,0.2,0.1,0.2,0.1c0.1,0,0.2,0,0.2-0.1l1-1.1l0,0c0-0.1,0-0.1,0-0.1
					s0-0.1-0.1-0.1V33.2L8.5,33.2z"/>
				<path class="st1" d="M12.5,36.4l0.8,0.5V37l-0.2-0.1H13c0,0,0,0-0.1,0.1l-0.5,1c-0.1,0.1-0.1,0.2-0.1,0.3s0,0.2,0,0.3
					s0.1,0.2,0.2,0.3c0.2,0.1,0.3,0.1,0.4,0.1c0.1,0,0.2-0.1,0.3-0.3l0.5-0.9c0-0.1,0.1-0.1,0.1-0.2v-0.1v-0.1l-0.1-0.1l0.1-0.1
					l0.6,0.4l-0.1,0.1l0,0c-0.1,0-0.1-0.1-0.2,0c-0.1,0-0.1,0.1-0.2,0.2l-0.5,0.9C13.3,38.9,13.2,39,13,39s-0.4,0-0.6-0.1
					c-0.2-0.1-0.3-0.2-0.4-0.3c0-0.2,0-0.3,0-0.4s0-0.2,0.1-0.3l0.6-1.1v-0.1c0,0,0-0.1-0.1-0.1L12.5,36.4L12.5,36.4z"/>
				<path class="st1" d="M20,38.5l0.9-0.3v0.1l-0.2,0.1c-0.1,0-0.1,0.1-0.1,0.1v0.1l0.5,1.5c0,0.1,0,0.1,0.1,0.1h0.1l0.2-0.1v0.1
					l-0.9,0.3v-0.1l0.2-0.1c0.1,0,0.1,0,0.1-0.1v-0.1l-0.5-1.5c0-0.1,0-0.1-0.1-0.1c0,0-0.1,0-0.2,0H20L20,38.5z"/>
				<path class="st1" d="M23.1,37.5l0.8-0.5l0.1,0.1l-0.1,0.1c-0.1,0-0.1,0.1-0.1,0.1v0.1c0,0,0,0,0.1,0.1l0,0l1.2,1L24.7,37v-0.1
					l-0.1-0.1h-0.1l-0.1,0.1l-0.1-0.1l0.7-0.4l0.1,0.1H25l-0.1,0.1c0,0.1,0,0.2,0,0.3l0.3,1.9L25,39l-1.6-1.3
					c-0.1,0-0.1-0.1-0.1-0.1h-0.1L23.1,37.5L23.1,37.5z"/>
				<path class="st1" d="M26.5,35.3l1.3-1.2l0.5,0.5l-0.1,0.1c-0.2-0.2-0.3-0.2-0.5-0.2c-0.1,0-0.2,0-0.3,0.1l-0.3,0.3
					c0,0,0,0,0,0.1v0.1l0.5,0.6l0.5-0.4c0.1-0.1,0.2-0.3,0.1-0.4l0.1-0.1l0.5,0.5l-0.1,0.1c-0.1-0.2-0.3-0.2-0.5,0l-0.5,0.4l0.6,0.7
					c0,0,0,0,0.1,0c0,0,0.1,0,0.1-0.1l0.3-0.2c0.3-0.2,0.3-0.6,0-1l0.1-0.1l0.5,0.6L28,37l-0.1-0.1l0.1-0.1l0.1-0.1v-0.1l-1.2-1.3
					h-0.1h-0.1L26.5,35.3L26.5,35.3z"/>
				<path class="st1" d="M29.4,32.3l0.5-1c0.1-0.2,0.2-0.3,0.4-0.4c0.1-0.1,0.3,0,0.4,0s0.1,0.1,0.2,0.2c0,0.1,0.1,0.2,0.1,0.3
					c0,0.1,0,0.2-0.1,0.4c0.1-0.1,0.2-0.2,0.2-0.2c0.1,0,0.1,0,0.2,0s0.2,0,0.4,0.1c0.1,0,0.2,0.1,0.3,0h0.1v-0.1
					c0,0-0.1-0.1-0.2-0.2v-0.1c0.3,0.2,0.4,0.4,0.3,0.6c0,0.1-0.1,0.1-0.1,0.1c-0.1,0-0.1,0-0.2,0s-0.2-0.1-0.4-0.1
					c-0.1,0-0.2-0.1-0.3-0.1c-0.1,0-0.1,0-0.2,0.1c-0.1,0-0.1,0.1-0.2,0.2l-0.1,0.2l0.7,0.4h0.1c0,0,0.1,0,0.1-0.1l0.1-0.2l0.1,0.1
					l-0.5,0.9l-0.1-0.1l0.1-0.2V33v-0.1l-1.5-0.8h-0.1c0,0,0,0-0.1,0.1L29.4,32.3L29.4,32.3L29.4,32.3z M30.5,32.2l0.1-0.2
					c0.1-0.2,0.1-0.3,0.1-0.4s-0.1-0.2-0.2-0.3c-0.1-0.1-0.2-0.1-0.3-0.1c-0.1,0-0.1,0-0.2,0.1c0,0-0.1,0.1-0.2,0.3
					c-0.1,0.1-0.1,0.2-0.1,0.2s0,0.1,0.1,0.1L30.5,32.2z"/>
				<path class="st1" d="M31.2,26.9l-0.1-0.2v-0.1l0.7,0.3V27c-0.2,0-0.4,0-0.6,0.1c-0.1,0.1-0.2,0.2-0.3,0.3c0,0.1,0,0.2,0,0.3
					c0,0.1,0.1,0.2,0.2,0.2s0.1,0,0.2,0s0.1,0,0.2-0.1c0.1,0,0.1-0.1,0.2-0.3c0.1-0.2,0.2-0.3,0.3-0.4s0.2-0.1,0.3-0.1s0.2,0,0.3,0
					c0.2,0.1,0.3,0.2,0.4,0.4c0.1,0.2,0.1,0.4,0,0.5c-0.1,0.2-0.2,0.4-0.4,0.5l0.1,0.2v0.1l-0.8-0.3v-0.1c0.2,0,0.4,0,0.6-0.1
					c0.2-0.1,0.3-0.2,0.4-0.4c0.1-0.1,0.1-0.3,0-0.4c0-0.1-0.1-0.2-0.2-0.2c-0.1,0-0.1,0-0.2,0c-0.1,0-0.1,0-0.2,0.1
					c-0.1,0.1-0.2,0.2-0.3,0.4c-0.1,0.2-0.3,0.3-0.4,0.4s-0.3,0.1-0.5,0s-0.3-0.2-0.4-0.3c-0.1-0.2-0.1-0.3,0-0.5
					c0-0.1,0.1-0.2,0.1-0.2C31.1,27,31.1,26.9,31.2,26.9z"/>
				<path class="st1" d="M31.2,24.1v-0.9h0.1v0.2c0,0.1,0,0.1,0,0.1h0.1H33c0.1,0,0.1,0,0.1,0v-0.1v-0.2h0.1v0.9h-0.1v-0.2
					c0-0.1,0-0.1,0-0.1H33h-1.6c-0.1,0-0.1,0-0.1,0v0.1L31.2,24.1L31.2,24.1z"/>
				<path class="st1" d="M31.2,20.4v-1.9H32v0.1c-0.5,0.1-0.7,0.3-0.7,0.6c0,0.1,0,0.1,0,0.1s0,0,0.1,0h1.7h0.1v-0.1V19h0.1v1.1
					h-0.1v-0.3v-0.1c0,0,0,0-0.1,0h-1.7h-0.1v0.1c0,0.1,0.1,0.3,0.2,0.4s0.3,0.1,0.5,0.2v0.1L31.2,20.4z"/>
				<path class="st1" d="M31.1,15.9V15h0.1v0.1c0,0.1,0,0.1,0,0.2c0,0,0,0,0.1,0c0,0,0,0,0.1,0l0.9-0.5l-0.7-0.4h-0.1h-0.1v0.1v0.1
					h-0.1v-0.8h0.1c0,0.1,0,0.2,0,0.2c0,0.1,0.1,0.1,0.2,0.2l0.9,0.5h0.7h0.1v-0.1v-0.2h0.1v1h-0.1v-0.2c0-0.1,0-0.1,0-0.1
					s0,0-0.1,0h-0.7l-1,0.6l-0.1,0.1c0,0,0,0.1,0,0.2L31.1,15.9z"/>
				<path class="st1" d="M6.3,22.9v0.9H6.2v-0.2c0-0.1,0-0.1,0-0.1H6.1H4.5c-0.1,0-0.1,0-0.1,0v0.1v0.2H4.3v-0.9h0.1v0.2
					c0,0.1,0,0.1,0,0.1h0.1h1.6c0.1,0,0.1,0,0.1,0v-0.1L6.3,22.9L6.3,22.9z"/>
				<path class="st1" d="M7.4,31L7.4,31L6,32.6c-0.1,0.1-0.1,0.1,0,0.2v0.1H5.9l-0.4-0.8h0.1v0.1c0,0.1,0.1,0.1,0.1,0.2
					c0,0,0,0,0.1,0l0,0L6.1,32l-0.3-0.8H5.5c-0.1,0-0.1,0-0.2,0l-0.1,0.1c0,0.1,0,0.1,0,0.2v0.1H5.1L5,30.9h0.1
					c0,0.1,0.1,0.1,0.1,0.2c0.1,0,0.1,0,0.2,0L7.4,31L7.4,31z M7,31.1H6l0.3,0.7L7,31.1z"/>
				<path class="st1" d="M16,38l0.5,0.1l0.8,2l0.3-1.2c0-0.1,0-0.2,0-0.3s-0.1-0.1-0.2-0.1v-0.1l0.7,0.2v0.1c-0.1,0-0.1,0-0.2,0
					c0,0-0.1,0-0.1,0.1c0,0-0.1,0.1-0.1,0.2l-0.5,1.6h-0.1l-0.8-2.1L16,39.8c0,0.1,0,0.2,0,0.3s0.1,0.1,0.2,0.2v0.1l-0.8-0.2v-0.1
					c0.1,0,0.2,0,0.3,0s0.1-0.1,0.2-0.2l0.4-1.4l0,0c0-0.1-0.1-0.1-0.1-0.1s-0.1,0-0.1-0.1H16V38z"/>
			</g>
		</g>
		<path class="st1" d="M15.7,4.1c0.2,0,0.4,0.1,0.6,0.1c0,0,0.1,0.1,0.1,0.2c-0.1,0.2-0.6,0.2-0.8,0.3c-0.1,0.2-0.3,0.3-0.4,0.5l0,0
			c0,0,0,0,0.1,0s0.3,0,0.4-0.1c0-0.1,0.1-0.1,0.1-0.2C15.9,4.9,15.9,5,16,5c0.4-0.2,0.7-0.3,1.1,0c0,0.2-0.1,0.4,0,0.6l0.1,0.1
			c0,0.1,0,0.2,0,0.3c0,0.1,0,0.1,0,0.2c-0.1,0.2-0.4,0.4-0.6,0.4c-0.1-0.1-0.2-0.1-0.2-0.2c0.1,0,0.2,0.1,0.3,0.1
			c0.1-0.1,0.2-0.2,0.3-0.4c0.1-0.2-0.1-0.9-0.3-1c-0.1,0-0.2,0.1-0.2,0.1c-0.3,0.2-0.3,0.1-0.4,0.5l0,0c0.1,0,0.2-0.1,0.3-0.1l0,0
			c0,0,0,0,0,0.1C16,5.9,15.7,6,15.7,6.1v0.1h-0.1l0,0l0,0c0.1,0,0.4-0.2,0.5-0.1c0,0,0,0,0,0.1c-0.1,0.1-0.3,0.1-0.5,0.2
			c0,0.1,0,0.2,0,0.2c0,0.1-0.2,0.1-0.2,0.1c0-0.6-0.4,0.1-0.6-0.2c0,0,0,0,0-0.1c0.1-0.1,0.4-0.1,0.5-0.1l0,0c0,0,0-0.1-0.1-0.1
			c-0.2,0-0.3,0-0.4,0c0,0,0,0,0-0.1c0.3-0.1,0.5-0.2,0.6-0.5c0,0,0,0,0-0.1l0,0c-0.1,0.1-0.2,0.4-0.5,0.3c-0.1-0.1-0.3-0.4-0.1-0.6
			c0.1-0.1,0.3-0.2,0.3-0.4c-0.3,0-0.5,0.2-0.8,0c0,0,0,0,0-0.1c0.2-0.2,0.5-0.2,0.9-0.3c0-0.4-0.1-0.6-0.2-0.9
			c-0.1-0.3,0-0.4,0.2-0.3l0,0l-0.1,0.1c0,0.1,0.1,0.1,0.1,0.2c0.1,0.2,0,0.7,0.1,0.8c0.1,0.1,0.3,0,0.4,0l0,0
			C15.8,4.3,15.7,4.2,15.7,4.1L15.7,4.1z M14.6,5.4c-0.1,0.1-0.2,0.1-0.3,0.1c-0.3,0.3,0,1,0.2,1.3l0,0c0.2-0.4-0.4-0.9-0.1-1.3h0.1
			C14.5,5.5,14.5,5.5,14.6,5.4L14.6,5.4z"/>
		<path class="st1" d="M22.6,3.7L22.6,3.7c0.1,0,0.1,0.1,0.1,0.1c0,0.1-0.1,0.2-0.1,0.2c0,0.1,0.1,0.1,0.1,0.2
			c0.1,0.3,0.1,0.5,0.3,0.6c0.1,0.1,0.4,0,0.4,0.2c0,0.1,0,0.1,0,0.2c-0.1,0-0.1,0.1-0.2,0.1s-0.1,0-0.2,0c-0.2,0-0.5,0-0.6,0
			c-0.1,0.4-0.5,0.8-0.9,1c-0.1,0.1-0.2,0.1-0.4,0.2c-0.1,0.1-0.3,0.1-0.4,0.1l0,0c0-0.1,0.4-0.3,0.4-0.3c0.3-0.2,0.7-0.6,0.9-1l0,0
			c-0.3,0-0.5,0-0.7-0.1c0-0.1,0-0.1,0-0.2c0.1-0.1,0.3-0.1,0.5-0.1c0.1,0,0.3,0.1,0.4,0C22.6,4.7,22.5,4,22.6,3.7L22.6,3.7z
			 M22.6,4.4c0,0.1,0,0.4,0,0.5c0.1,0,0.1,0,0.2,0V4.8c0-0.1-0.1-0.1-0.2-0.2C22.7,4.5,22.7,4.4,22.6,4.4L22.6,4.4L22.6,4.4z
			 M22.6,5.7c-0.1,0.1-0.1,0.3,0,0.4s0.2,0.2,0.2,0.3c0.1,0.2,0.3,0.5,0.5,0.7L23.5,7c0,0,0,0,0-0.1c0-0.2-0.1-0.2-0.2-0.3
			C23.2,6.3,23,5.7,22.6,5.7z"/>
		<path class="st1" d="M8.8,4.9C9,4.9,9,4.9,9.1,5c0,0.1,0,0.4,0,0.5s0,0.3,0,0.4S9,6.2,9.1,6.3c0.4,0,0.6-0.4,0.9-0.6
			c0,0,0,0,0.1,0l0,0c0,0.3-1,1-1.4,0.9c-0.1,0.5-0.3,1-0.4,1.5c0,0.2,0.1,0.5-0.1,0.6l0,0c0-0.1,0-0.2,0-0.3S8.3,8.1,8.4,8
			c0.1-0.3,0.1-0.5,0.2-0.8c0.1-0.3,0.2-0.7,0.3-1.1C8.8,5.6,8.6,5.2,8.8,4.9L8.8,4.9z M8.2,7.6c0-0.3-0.1-0.6-0.3-0.7
			C7.8,6.8,7.7,6.7,7.7,6.7c0-0.2,0.5-0.2,0.7-0.2c0.1-0.1,0.1-0.1,0.2-0.3C8.2,6,8,5.8,7.7,5.6c0,0-0.1,0-0.2,0
			C7.3,5.9,7.9,6.2,8,6.3C7.9,6.5,7.7,6.4,7.5,6.5c-0.1,0-0.1,0.1-0.1,0.2C7.2,7,7.8,7.2,7.9,7.3C8,7.4,8.1,7.5,8.2,7.6
			C8.1,7.6,8.1,7.6,8.2,7.6L8.2,7.6z M9.9,8.2c0,0.1-0.1,0.1-0.1,0.2l0,0c0.3,0,0.5-0.3,0.6-0.5c0-0.1,0-0.1,0-0.2c0,0,0-0.1,0-0.2
			s-0.1-0.2-0.1-0.3c0,0,0,0,0-0.1c0.1,0,0.4-0.2,0.4-0.2c-0.1-0.2-0.3-0.1-0.5,0l0,0c0-0.1,0-0.3-0.1-0.3C9.9,6.3,9.6,6.8,9.3,6.8
			l0,0c0,0,0-0.1-0.1-0.1c0-0.1,0.1-0.1,0.1-0.2l0,0C9.2,6.6,9.2,6.8,9.1,6.9c0,0.2,0,0.4-0.1,0.6C8.9,7.6,8.6,7.6,8.5,7.7
			c0,0.1,0,0.1,0.1,0.2c0.1,0,0.2-0.1,0.3-0.1l0,0C9,8.3,9.4,8.2,9.9,8.2L9.9,8.2z M9.7,6.8C9.6,6.9,9.5,7,9.5,7
			C9.4,7,9.4,7,9.3,7.1l0,0c0,0.1,0,0.2,0,0.3c0.1,0,0.1,0,0.1-0.1s0-0.2,0-0.2c0.1,0,0.1,0.1,0.2,0.1c0.1,0,0.2-0.1,0.3-0.1
			C9.9,7,9.8,6.9,9.7,6.8C9.8,6.8,9.8,6.8,9.7,6.8L9.7,6.8z M9.9,7.4c0,0-0.1,0-0.1,0.1C9.7,7.6,9.9,7.8,9.6,7.8l0,0
			c0-0.1,0-0.1,0-0.2l0,0c-0.3,0-0.4,0-0.4,0.2c0,0.1,0,0.1,0.1,0.1C9.5,8,9.9,8,10,7.9C10,7.7,10,7.5,9.9,7.4L9.9,7.4z"/>
		<path class="st1" d="M28.7,7.4c0.1,0,0.1,0,0.2,0c0,0.2,0.2,0.3,0.4,0.4c0.1,0,0.1,0,0.2,0.1c0,0,0,0,0,0.1l-0.1,0.1
			c-0.1,0-0.3-0.1-0.5,0c0,0.2,0,0.2-0.1,0.4c0,0.1-0.1,0.1-0.2,0.1s-0.2,0.1-0.3,0.1C28,8.6,27.8,8.3,27.8,8l0,0
			C28,8.1,28,8.4,28.3,8.5c0.2-0.1,0.3-0.2,0.4-0.5c0,0,0,0-0.1,0c-0.3,0-0.7-0.1-0.8-0.3c0-0.1,0.1-0.1,0.1-0.2
			c0.1,0,0.7,0.2,0.7,0.1C28.7,7.5,28.7,7.5,28.7,7.4L28.7,7.4z M30,5.4c-0.2,0.1-0.5,0.4-0.7,0.4c-0.1-0.1-0.1-0.1-0.2-0.2
			c-0.1,0-0.1,0.1-0.2,0.1c-0.1-0.1-0.1-0.2-0.2-0.2h-0.1c-0.2,0.1-0.2,0.4-0.1,0.6c0.1,0.1,0.4,0.3,0.5,0.1c0-0.1,0.1-0.1,0.1-0.2
			l0,0c-0.1,0,0,0,0.1,0c0.1-0.1,0.2-0.1,0.3-0.2c0.1-0.1,0.3-0.2,0.4-0.3C29.9,5.5,29.9,5.5,30,5.4c0,0.1,0,0.1,0,0.2
			c-0.2,0.7-1.1,0.7-1.8,0.9l0,0c0,0.1,0.2,0.3,0.3,0.3c0.3,0,1.3-0.2,1.5,0.2c0.1,0.2-0.5,0.4-0.8,0.3l0,0c0-0.5-0.6-0.3-0.8-0.2
			c0,0,0,0,0,0.1l0,0c0.2,0,0.3-0.1,0.5,0l0,0c0,0.1,0,0.1-0.1,0.2c0.1,0,0.2-0.1,0.3-0.1c0.1,0,0.1,0,0.1,0.1
			c0.4,0.1,0.9-0.2,1-0.5c0-0.3-0.4-0.4-0.7-0.4c-0.1,0-0.2,0-0.4,0l0,0l0,0c0.3-0.2,0.8-0.3,0.9-0.6C30.2,5.7,30.2,5.5,30,5.4
			L30,5.4L30,5.4z M27.8,6.3L27.8,6.3C27.9,6.6,28,7,27.7,7C27.4,6.9,27.7,6.4,27.8,6.3z"/>
	</g>
</g>
</svg>
